# xmcd
#
# Track frame offsets: 
#        150
#        4024
#        24369
#        42023
#        59397
#        77794
#        97488
#        115850
#        132442
#        152659
#        170203
#        187163
#        207821
#        227669
#
# Disc length: 3079 seconds
#
# Revision: 3
# Processed by: cddbd v1.5.2PL0 Copyright (c) Steve Scherf et al.
# Submitted via: ExactAudioCopyFreeDBPlugin 1.0
#
DISCID=bc0c050e
DTITLE=Kandi - Hey Kandi...
DYEAR=2000
DGENRE=R&B
TTITLE0=Intorduction
TTITLE1=Hey Kandi
TTITLE2=Cheatin' On Me
TTITLE3=What I'm Gon' Do To You
TTITLE4=Don't Think I'm Not
TTITLE5=Pants On Fire
TTITLE6=Can't Come Back
TTITLE7=I Wanna Know
TTITLE8=Talking 'Bout You
TTITLE9=Sucka For You
TTITLE10=I Won't Bite My Tongue
TTITLE11=Just So You Know
TTITLE12=Easier Feat. Faith Evans
TTITLE13=Outro
EXTD=YEAR: 2000 ID3G:  13
EXTT0=
EXTT1=
EXTT2=
EXTT3=
EXTT4=
EXTT5=
EXTT6=
EXTT7=
EXTT8=
EXTT9=
EXTT10=
EXTT11=
EXTT12=
EXTT13=
PLAYORDER=
